<?xml version="1.0" standalone="no"?>
<!DOCTYPE svg PUBLIC "-//W3C//DTD SVG 20010904//EN"
 "http://www.w3.org/TR/2001/REC-SVG-20010904/DTD/svg10.dtd">
<svg version="1.0" xmlns="http://www.w3.org/2000/svg"
 width="1200.000000pt" height="1200.000000pt" viewBox="0 0 1200.000000 1200.000000"
 preserveAspectRatio="xMidYMid meet">
<metadata>
Created by potrace 1.11, written by Peter Selinger 2001-2013
</metadata>
<g transform="translate(0.000000,1200.000000) scale(0.100000,-0.100000)"
fill="#000000" stroke="none">
<path d="M5373 10157 c26 -103 27 -541 2 -699 -2 -13 -8 -57 -15 -98 -30 -203
-78 -394 -156 -630 -71 -210 -123 -340 -232 -570 -24 -52 -48 -104 -53 -115
-36 -80 -230 -428 -318 -568 -89 -144 -263 -404 -354 -532 -158 -220 -430
-575 -441 -575 -1 0 -3 6 -3 13 0 31 -14 245 -18 272 -2 17 -6 64 -10 105 -4
41 -9 84 -11 95 -2 10 -6 37 -9 60 -26 187 -83 390 -166 585 -60 143 -118 252
-119 225 -1 -36 -15 -131 -35 -250 -23 -129 -96 -373 -163 -540 -74 -185 -118
-280 -376 -808 -58 -119 -106 -219 -106 -221 0 -3 -16 -40 -36 -83 -67 -144
-171 -415 -189 -493 -2 -8 -4 -15 -5 -15 -1 0 -3 -7 -5 -15 -2 -8 -15 -58 -29
-110 -24 -93 -34 -136 -41 -192 -2 -15 -8 -51 -14 -80 -40 -210 -50 -614 -18
-816 64 -407 220 -749 501 -1097 84 -105 322 -348 415 -425 30 -25 59 -50 65
-55 27 -25 119 -98 206 -163 52 -40 100 -76 106 -81 35 -29 390 -259 509 -330
77 -46 151 -90 164 -99 19 -12 23 -12 18 -1 -117 268 -207 516 -231 640 -2 13
-9 45 -15 72 -6 26 -14 64 -17 85 -3 20 -7 44 -9 52 -17 65 -25 359 -12 480
37 356 160 656 448 1092 172 260 278 460 396 753 76 189 157 438 179 555 12
64 15 64 48 8 59 -98 104 -200 140 -315 24 -78 29 -95 41 -160 3 -16 8 -35 10
-43 13 -43 20 -152 20 -300 0 -150 -4 -213 -21 -308 -3 -17 -3 -32 0 -32 11 0
128 155 190 249 111 171 166 277 251 486 74 180 159 466 179 597 3 21 10 57
15 80 5 24 12 63 16 88 3 25 8 56 10 70 2 14 7 54 10 90 3 36 8 88 10 115 7
67 7 330 0 380 -3 22 -7 60 -10 84 -4 25 -8 48 -11 53 -12 19 12 4 89 -54 45
-34 84 -64 87 -67 3 -3 34 -30 70 -60 113 -94 341 -331 453 -471 302 -376 540
-815 693 -1280 32 -97 103 -346 110 -385 2 -16 7 -37 9 -45 7 -23 19 -93 60
-330 3 -13 7 -58 11 -100 3 -41 7 -77 9 -80 6 -10 18 -292 17 -410 -1 -143
-14 -361 -27 -440 -2 -14 -7 -45 -10 -70 -47 -337 -170 -750 -302 -1014 -19
-37 -33 -69 -31 -71 12 -10 502 307 675 437 263 196 602 506 780 713 135 157
310 400 379 525 10 19 21 37 24 40 7 7 22 34 73 136 168 330 267 650 312 1004
3 25 8 61 11 80 10 56 12 508 4 590 -7 66 -13 116 -25 210 -4 25 -20 121 -30
175 -52 282 -169 648 -305 955 -50 113 -185 383 -229 458 -17 29 -31 55 -31
57 0 2 -37 63 -81 137 -158 259 -365 547 -561 780 -117 140 -417 446 -456 467
-23 12 -23 12 -9 -16 20 -38 73 -211 91 -298 57 -267 44 -600 -32 -815 -42
-120 -131 -268 -201 -334 -17 -17 -31 -28 -32 -25 -8 45 -96 340 -143 474
-118 343 -283 715 -425 953 -17 29 -31 55 -31 57 0 17 -200 315 -306 455 -290
385 -686 747 -1044 953 -77 44 -263 136 -309 152 -43 15 -43 15 -38 -8z"/>
</g>
</svg>
